Coordinates
version=1
nRows=11
nColumns=40
inDegrees=yes

Units are S.I. units (second, meters, Newtons, ...)
Angles are in degrees.

endheader
time	pelvis_tilt	pelvis_list	pelvis_rotation	pelvis_tx	pelvis_ty	pelvis_tz	hip_flexion_r	hip_adduction_r	hip_rotation_r	knee_angle_r	knee_angle_r_beta	ankle_angle_r	subtalar_angle_r	mtp_angle_r	hip_flexion_l	hip_adduction_l	hip_rotation_l	knee_angle_l	knee_angle_l_beta	ankle_angle_l	subtalar_angle_l	mtp_angle_l	lumbar_extension	lumbar_bending	lumbar_rotation	arm_flex_r	arm_add_r	arm_rot_r	elbow_flex_r	pro_sup_r	wrist_flex_r	wrist_dev_r	arm_flex_l	arm_add_l	arm_rot_l	elbow_flex_l	pro_sup_l	wrist_flex_l	wrist_dev_l
      1.05000000	     -3.55442615	      2.06198600	     -2.57773909	      0.38173343	      0.95231975	     -1.02485582	      0.99290703	      0.26721857	    -12.67328488	    -15.55243815	     -0.27144125	     10.67559873	      0.67067297	    -15.24255898	     27.43053685	      5.25298105	     14.77327215	    -20.54756997	     -0.35862275	     -0.30246402	      6.06602557	      6.13909282	      1.18575511	     -3.97518687	      3.47880444	      3.05255599	    -14.77030261	     -8.17281715	     38.43655789	     89.95437384	      0.00000000	      0.00000000	    -11.12047144	     10.87536398	     11.41504202	     12.86946058	     89.95437384	      0.00000000	      0.00000000
      1.06000000	     -3.04808609	      1.86613945	     -3.08087553	      0.39545329	      0.95093034	     -1.02448825	     -0.72129633	      0.39763191	    -12.80748546	    -15.08707911	     -0.26331920	     11.09669244	      1.12896640	    -15.53431073	     26.94876724	      5.85347712	     15.89694692	    -17.52371538	     -0.30584653	     -0.92356554	      3.06763655	      5.94072925	      0.70290490	     -3.75937140	      3.92107801	      3.46403356	    -15.24762605	     -8.06063877	     39.55177445	     89.95437384	      0.00000000	      0.00000000	    -12.28349663	     10.84324094	     10.36283551	     12.15968343	     89.95437384	      0.00000000	      0.00000000
      1.07000000	     -2.82750780	      1.58664782	     -3.51457615	      0.40901364	      0.94890603	     -1.02444673	     -2.06451093	      0.60863496	    -12.90908909	    -14.72421051	     -0.25698595	     11.50787305	      1.66996411	    -15.89738874	     26.91184936	      6.50864607	     16.97902962	    -14.94982855	     -0.26092373	     -1.66259038	     -0.15850070	      5.57749790	      0.53037127	     -3.39140133	      4.31066438	      3.80098971	    -15.80698227	     -7.78667525	     40.64999956	     89.95437384	      0.00000000	      0.00000000	    -13.36598303	     10.73498027	      9.39809346	     11.34201140	     89.95437384	      0.00000000	      0.00000000
      1.08000000	     -3.02719849	      1.24811989	     -3.79961292	      0.42205060	      0.94617801	     -1.02482434	     -2.85284254	      0.89542597	    -12.98338903	    -14.55089204	     -0.25396098	     11.96728758	      1.88016491	    -16.15485658	     27.40733150	      6.97207728	     16.82235651	    -12.62729108	     -0.22038780	     -1.91900867	     -1.76967074	      5.59554392	      0.77323933	     -2.93145155	      4.52101010	      4.20916149	    -16.31202860	     -7.70107752	     41.49860137	     89.95437384	      0.00000000	      0.00000000	    -14.31838582	     10.53353701	      9.06410024	     10.35412352	     89.95437384	      0.00000000	      0.00000000
      1.09000000	     -2.49756045	      1.19170915	     -4.23838040	      0.43626116	      0.94456857	     -1.02497136	     -4.49705121	      0.68094582	    -13.64001307	    -14.34303808	     -0.25033324	     12.43686336	      3.20883605	    -16.68952609	     27.11045310	      7.56908263	     19.18019176	    -10.89106447	     -0.19008493	     -3.25551220	     -7.04673183	      4.79278411	      0.33399545	     -2.82325835	      5.01384981	      4.41869184	    -16.75291094	     -7.83151799	     42.48394740	     89.95437384	      0.00000000	      0.00000000	    -15.39058014	     10.58035099	      6.77647969	      9.76593195	     89.95437384	      0.00000000	      0.00000000
      1.10000000	     -2.33890180	      1.20399252	     -4.61081589	      0.45004754	      0.94248606	     -1.02553899	     -5.62785833	      0.41395420	    -14.04185077	    -14.32533451	     -0.25002425	     12.78085114	      4.05797228	    -17.23472744	     27.23872449	      7.82928501	     20.15614001	     -9.40555611	     -0.16415792	     -4.14738167	     -9.77388451	      4.04601391	      0.27289714	     -2.74727208	      5.39664582	      4.71420706	    -17.08525574	     -8.13195870	     43.15917238	     89.95437384	      0.00000000	      0.00000000	    -16.31119653	     10.52065125	      5.21619622	      9.00035260	     89.95437384	      0.00000000	      0.00000000
      1.11000000	     -2.37196301	      1.18019594	     -4.95601478	      0.46369765	      0.94017061	     -1.02618174	     -6.43594886	      0.21649928	    -14.15174061	    -14.49622974	     -0.25300694	     13.08943761	      4.23551396	    -17.43568926	     27.49159809	      7.95782207	     19.96409314	     -8.11569766	     -0.14164565	     -4.29423351	    -10.89550733	      4.05665298	      0.41032642	     -2.61976048	      5.66690564	      5.07030740	    -17.39358818	     -8.21842329	     43.62497859	     89.95437384	      0.00000000	      0.00000000	    -17.06225607	     10.32967978	      4.77408205	      7.99592720	     89.95437384	      0.00000000	      0.00000000
      1.12000000	     -1.92819691	      1.65544154	     -5.50527726	      0.47842985	      0.93866980	     -1.02693414	     -7.67656959	     -0.79583094	    -14.89075392	    -14.86797919	     -0.25949519	     13.48909111	      5.66558686	    -17.95653808	     27.05345728	      7.68085136	     21.22152421	     -7.13107129	     -0.12446067	     -4.81658907	    -12.43282063	      4.12285509	      0.19828862	     -3.04501324	      6.32779525	      5.17789626	    -17.55379195	     -8.88832337	     44.15009028	     89.95437384	      0.00000000	      0.00000000	    -17.96084986	     10.40742876	      2.17014798	      7.45080759	     89.95437384	      0.00000000	      0.00000000
      1.13000000	     -2.00565153	      1.71591042	     -5.80058919	      0.49263832	      0.93641557	     -1.02771320	     -8.34407048	     -1.12890460	    -14.81472534	    -15.26449489	     -0.26641569	     13.36138247	      5.53318982	    -17.74980010	     27.55909447	      7.78971084	     20.92638687	     -7.29804778	     -0.12737496	     -4.78048593	    -12.20598742	      4.07188754	      0.43470909	     -3.00753831	      6.43251729	      5.47552848	    -17.72751329	     -9.04504903	     44.44727966	     89.95437384	      0.00000000	      0.00000000	    -18.96232912	     10.22769881	      2.07885404	      7.13888317	     89.95437384	      0.00000000	      0.00000000
      1.14000000	     -1.46312924	      2.46440845	     -6.44443795	      0.50778179	      0.93555045	     -1.02873505	     -9.51587386	     -2.61313686	    -15.40537295	    -15.90132421	     -0.27753046	     13.85045963	      7.43690896	    -18.47826402	     26.62607244	      6.95222042	     20.49836500	     -6.61651423	     -0.11547996	     -4.12086861	    -10.80341927	      3.67525062	      0.26724863	     -3.68748716	      7.47342042	      5.34546314	    -17.73266883	    -10.24655189	     44.65210945	     89.95437384	      0.00000000	      0.00000000	    -19.44711271	     10.50987370	     -3.08089129	      6.25317523	     89.95437384	      0.00000000	      0.00000000
      1.15000000	     -1.19847258	      2.84498226	     -6.97024310	      0.52304285	      0.93417275	     -1.02936993	    -10.49300640	     -3.42543470	    -15.06095393	    -16.38276666	     -0.28593322	     13.71916901	      7.26866078	    -18.29426276	     26.45544794	      6.72636116	     20.25841578	     -7.34590023	     -0.12821015	     -3.47895341	     -9.97074081	      3.46157879	      0.31866595	     -4.02025343	      7.89325834	      5.54823603	    -17.67768790	    -10.77109707	     44.59264525	     89.95437384	      0.00000000	      0.00000000	    -19.98017331	     10.33270136	     -3.65080771	      5.29303104	     89.95437384	      0.00000000	      0.00000000
